<svg width="24" height="24" viewBox="0 0 24 24" fill="none" xmlns="http://www.w3.org/2000/svg">
<g clip-path="url(#clip0_4006_1966)">
<path d="M12.0005 0.47998C5.64863 0.47998 0.480469 5.64814 0.480469 12C0.480469 15.4037 1.96559 18.4665 4.32047 20.5771V20.5853L4.48751 20.7293C4.51679 20.7547 4.54895 20.7758 4.57871 20.8008C5.05891 21.2057 5.57079 21.5715 6.10943 21.8947C6.15023 21.9192 6.19199 21.9422 6.23279 21.9657C6.50015 22.1213 6.77327 22.2677 7.05359 22.4016L7.06223 22.4054C7.66697 22.6929 8.29579 22.9268 8.94143 23.1043L8.97743 23.1144C9.28511 23.1984 9.59807 23.2689 9.91535 23.327L10.0041 23.3429C10.3126 23.3973 10.6231 23.4393 10.9349 23.4686C10.9709 23.472 11.0069 23.4739 11.0424 23.4768C11.3587 23.5032 11.6774 23.52 12.0005 23.52C12.3235 23.52 12.6422 23.5032 12.9585 23.4768C12.9945 23.4739 13.0305 23.472 13.0661 23.4686C13.3805 23.4398 13.6905 23.3966 13.9968 23.3429L14.0856 23.327C14.4011 23.2695 14.714 23.1986 15.0235 23.1144L15.0595 23.1043C15.7052 22.9268 16.334 22.6929 16.9387 22.4054L16.9473 22.4016C17.2266 22.2673 17.5005 22.1219 17.7681 21.9657C17.8094 21.9417 17.8507 21.9192 17.8915 21.8947C18.135 21.7486 18.3731 21.5936 18.6053 21.4301C18.6648 21.3883 18.7243 21.3465 18.7833 21.3033C19.0022 21.143 19.2154 20.9755 19.4222 20.8008C19.452 20.7758 19.4841 20.7547 19.5134 20.7293L19.6805 20.5853V20.5771C22.0353 18.4661 23.5205 15.4037 23.5205 12C23.5205 5.64814 18.3523 0.47998 12.0005 0.47998ZM12.0005 12C9.88319 12 8.16047 10.2773 8.16047 8.15998C8.16047 6.0427 9.88319 4.31998 12.0005 4.31998C14.1177 4.31998 15.8405 6.0427 15.8405 8.15998C15.8405 10.2773 14.1177 12 12.0005 12ZM13.4405 12.96C16.3517 12.96 18.7205 15.3288 18.7205 18.24V20.1398C18.7003 20.1566 18.6792 20.172 18.659 20.1888C18.4694 20.3429 18.275 20.4893 18.0763 20.6294C18.0322 20.6606 17.9889 20.6928 17.9448 20.723C17.7302 20.8694 17.5099 21.0067 17.2857 21.1368L17.1624 21.2078C16.1374 21.7853 15.0224 22.1858 13.8643 22.3925L13.7822 22.4073C13.5093 22.454 13.2347 22.49 12.959 22.5153C12.9211 22.5187 12.8827 22.5211 12.8443 22.524C12.5645 22.5456 12.2832 22.56 12.0005 22.56C11.7177 22.56 11.4365 22.5456 11.1566 22.523L11.0419 22.5144C10.7385 22.4866 10.4365 22.4456 10.1366 22.3915C9.27355 22.2362 8.43317 21.974 7.63487 21.611L7.55759 21.576C7.27027 21.4421 6.98918 21.2952 6.71519 21.1358C6.49103 21.0062 6.27071 20.8685 6.05615 20.7221C6.01151 20.6918 5.96831 20.6597 5.92463 20.6285C5.72533 20.4884 5.53097 20.3414 5.34191 20.1878C5.32175 20.1715 5.30063 20.1557 5.28047 20.1389V18.24C5.28047 15.3288 7.64927 12.96 10.5605 12.96H13.4405ZM19.6805 19.2365V18.24C19.6805 15.2299 17.5378 12.7109 14.6981 12.1272C15.3455 11.6875 15.8755 11.0962 16.2419 10.4047C16.6084 9.71319 16.8001 8.94256 16.8005 8.15998C16.8005 5.51326 14.6472 3.35998 12.0005 3.35998C9.35375 3.35998 7.20047 5.51326 7.20047 8.15998C7.2008 8.94256 7.39255 9.71319 7.759 10.4047C8.12545 11.0962 8.65547 11.6875 9.30287 12.1272C6.46319 12.7109 4.32047 15.2299 4.32047 18.24V19.2365C2.53679 17.3448 1.44047 14.7989 1.44047 12C1.44047 6.1771 6.17759 1.43998 12.0005 1.43998C17.8233 1.43998 22.5605 6.1771 22.5605 12C22.5605 14.7989 21.4641 17.3448 19.6805 19.2365Z" fill="#282828"/>
</g>
<defs>
<clipPath id="clip0_4006_1966">
<rect width="24" height="24" fill="white"/>
</clipPath>
</defs>
</svg>
