<svg width="16" height="17" viewBox="0 0 16 17" fill="none" xmlns="http://www.w3.org/2000/svg">
<path d="M2.51858 8.46149C1.88656 7.35946 1.58139 6.45957 1.39739 5.54739C1.12524 4.1983 1.74804 2.88046 2.77975 2.03957C3.21579 1.68417 3.71565 1.8056 3.9735 2.26818L4.55562 3.31252C5.01702 4.1403 5.24772 4.55418 5.20197 4.99298C5.15621 5.43178 4.84508 5.78916 4.22281 6.50392L2.51858 8.46149ZM2.51858 8.46149C3.79783 10.6921 5.80539 12.7008 8.03859 13.9815M8.03859 13.9815C9.14063 14.6135 10.0405 14.9187 10.9527 15.1027C12.3018 15.3748 13.6196 14.752 14.4605 13.7203C14.8159 13.2843 14.6945 12.7844 14.2319 12.5266L13.1876 11.9445C12.3598 11.4831 11.9459 11.2524 11.5071 11.2981C11.0683 11.3439 10.7109 11.655 9.99616 12.2773L8.03859 13.9815Z" stroke="#141B34" stroke-width="1.5" stroke-linejoin="round"/>
</svg>
