<svg width="24" height="24" viewBox="0 0 24 24" fill="none" xmlns="http://www.w3.org/2000/svg">
<path d="M19.787 19.0356L13.0283 12.2769L19.787 5.51814C20.0593 5.23636 20.0593 4.78953 19.787 4.50765C19.508 4.21876 19.0476 4.21077 18.7587 4.4898L12 11.2485L5.24132 4.48989C4.95954 4.21769 4.5127 4.21769 4.23083 4.48989C3.94194 4.76893 3.93395 5.22934 4.21298 5.51823L10.9716 12.2769L4.21298 19.0355C4.07662 19.1719 4 19.3568 4 19.5497C3.99991 19.9513 4.32556 20.2769 4.7272 20.277C4.92012 20.2772 5.10513 20.2005 5.24132 20.0639L12 13.3052L18.7587 20.064C18.8949 20.2006 19.08 20.2773 19.2729 20.277C19.4657 20.2769 19.6505 20.2004 19.7869 20.0641C20.071 19.7801 20.0711 19.3196 19.787 19.0356Z" fill="#282828"/>
</svg>
