<svg width="25" height="24" viewBox="0 0 25 24" fill="none" xmlns="http://www.w3.org/2000/svg">
<path d="M19.8252 7.00012H19.4352C19.555 6.68004 19.6193 6.34184 19.6252 6.00012C19.6042 5.1867 19.2622 4.41464 18.6739 3.85254C18.0856 3.29045 17.2987 2.984 16.4852 3.00012C15.6857 3.01738 14.9056 3.24927 14.2265 3.6715C13.5474 4.09373 12.9944 4.69078 12.6252 5.40012C12.256 4.69078 11.703 4.09373 11.0239 3.6715C10.3448 3.24927 9.56467 3.01738 8.7652 3.00012C7.95168 2.984 7.16483 3.29045 6.5765 3.85254C5.98818 4.41464 5.64618 5.1867 5.6252 6.00012C5.63111 6.34184 5.69537 6.68004 5.8152 7.00012H5.4252C5.16206 7.0251 4.90648 7.102 4.67324 7.22637C4.44 7.35074 4.23373 7.52011 4.06634 7.72469C3.89896 7.92926 3.77379 8.16499 3.69807 8.41824C3.62235 8.67149 3.59759 8.93724 3.6252 9.20012V12.8001C3.57849 13.2844 3.70298 13.7696 3.97704 14.1716C4.25109 14.5735 4.65737 14.8667 5.1252 15.0001V19.3701C5.15607 19.8237 5.36225 20.2475 5.70008 20.5517C6.03791 20.8559 6.48088 21.0168 6.9352 21.0001H18.3152C18.7761 21.0164 19.2247 20.8501 19.5637 20.5374C19.9026 20.2247 20.1044 19.7908 20.1252 19.3301V15.0001C20.593 14.8667 20.9993 14.5735 21.2734 14.1716C21.5474 13.7696 21.6719 13.2844 21.6252 12.8001V9.20012C21.6528 8.93724 21.6281 8.67149 21.5523 8.41824C21.4766 8.16499 21.3514 7.92926 21.1841 7.72469C21.0167 7.52011 20.8104 7.35074 20.5772 7.22637C20.3439 7.102 20.0883 7.0251 19.8252 7.00012ZM19.6252 9.20012V12.8001C19.6372 12.8662 19.6372 12.934 19.6252 13.0001H13.6252V9.00012H19.6252C19.6372 9.06624 19.6372 9.13399 19.6252 9.20012ZM16.4852 5.00012C16.7685 4.98361 17.0469 5.07926 17.2602 5.26639C17.4736 5.45352 17.6047 5.71709 17.6252 6.00012C17.6047 6.28314 17.4736 6.54672 17.2602 6.73385C17.0469 6.92098 16.7685 7.01663 16.4852 7.00012H14.0252C14.2002 6.46589 14.5251 5.99327 14.9613 5.63865C15.3975 5.28403 15.9265 5.06237 16.4852 5.00012ZM7.6252 6.00012C7.64574 5.71709 7.77685 5.45352 7.99018 5.26639C8.20351 5.07926 8.48191 4.98361 8.7652 5.00012C9.32212 5.06418 9.84896 5.28666 10.2832 5.64116C10.7175 5.99567 11.0409 6.4673 11.2152 7.00012H8.7652C8.48191 7.01663 8.20351 6.92098 7.99018 6.73385C7.77685 6.54672 7.64574 6.28314 7.6252 6.00012ZM5.6252 9.20012C5.6132 9.13399 5.6132 9.06624 5.6252 9.00012H11.6252V13.0001H5.6252C5.6132 12.934 5.6132 12.8662 5.6252 12.8001V9.20012ZM7.1252 15.0001H11.6252V19.0001H7.1252V15.0001ZM13.6252 19.0001V15.0001H18.1252V19.0001H13.6252Z" fill="#7D7D7D"/>
</svg>
