<svg width="32" height="32" viewBox="0 0 32 32" fill="none" xmlns="http://www.w3.org/2000/svg">
<path d="M27.858 12.9727C29.5279 14.6424 29.5279 17.3466 27.8628 19.0139L18.804 28.0804C17.1366 29.7501 14.4327 29.7513 12.7652 28.0828L3.69795 19.0247C2.02687 17.3599 2.02687 14.6532 3.69553 12.9848L12.7531 3.91944C14.4218 2.251 17.1233 2.24858 18.7944 3.91582L27.858 12.9727Z" fill="#FFD157"/>
<path d="M18.805 11.0326L17.2823 12.555C16.6947 13.1417 16.6947 14.0943 17.2847 14.6822C17.8735 15.2701 18.8243 15.2689 19.4107 14.6822L20.3542 13.7381C20.3542 13.7381 20.6957 14.0774 21.5077 14.8886C21.5077 14.8886 21.5077 14.8899 21.5077 14.8911L22.4536 15.8351C22.4536 15.8351 16.2616 22.0332 15.9624 22.3314C15.6631 22.6296 15.3084 22.6514 15.0321 22.3725C13.6832 21.024 9.7112 17.0545 9.51574 16.8601C9.27925 16.6247 9.27925 16.2637 9.53504 16.0078C9.78962 15.753 17.14 8.39719 17.14 8.39719C17.7275 7.80804 17.7275 6.85551 17.14 6.26757C16.5524 5.68084 15.5992 5.68205 15.0092 6.26878L6.36663 14.92C5.52687 15.7615 5.54134 17.1402 6.39438 17.9949L13.9281 25.521C14.7836 26.3782 16.1602 26.3878 17 25.5464L25.1841 17.3551C26.0238 16.5148 26.0117 15.1361 25.1575 14.2802L23.9932 13.1188L23.636 12.7602L21.8769 11.0025C21.0347 10.1634 19.6556 10.1755 18.8026 11.0314" fill="#545454"/>
</svg>
