<svg width="24" height="24" viewBox="0 0 24 24" fill="none" xmlns="http://www.w3.org/2000/svg">
<path d="M11 24C9.07 24 7.5 22.43 7.5 20.5C7.5 20.3674 7.55268 20.2402 7.64645 20.1464C7.74021 20.0527 7.86739 20 8 20C8.13261 20 8.25979 20.0527 8.35355 20.1464C8.44732 20.2402 8.5 20.3674 8.5 20.5C8.5 21.878 9.621 23 11 23C12.379 23 13.5 21.878 13.5 20.5C13.5 20.3674 13.5527 20.2402 13.6464 20.1464C13.7402 20.0527 13.8674 20 14 20C14.1326 20 14.2598 20.0527 14.3536 20.1464C14.4473 20.2402 14.5 20.3674 14.5 20.5C14.5 22.43 12.93 24 11 24Z" fill="#282828"/>
<path d="M18.6526 20.2045H3.34832C3.07265 20.2037 2.80381 20.1187 2.57782 19.9608C2.35183 19.8029 2.17949 19.5798 2.0839 19.3212C1.98831 19.0626 1.97403 18.781 2.04298 18.5141C2.11193 18.2472 2.26081 18.0078 2.46968 17.8278C2.4886 17.8118 2.50877 17.7974 2.53 17.7846C3.21065 17.1953 3.75659 16.4664 4.13078 15.6475C4.50497 14.8286 4.69866 13.9388 4.6987 13.0385V10.3017C4.6987 6.82678 7.52638 4 11.0004 4C11.0725 4 11.1598 4.0027 11.2318 4.0171C11.2899 4.02848 11.3451 4.0512 11.3944 4.08396C11.4437 4.11672 11.486 4.15887 11.519 4.20801C11.552 4.25715 11.575 4.31231 11.5866 4.37033C11.5982 4.42835 11.5983 4.4881 11.5868 4.54615C11.5753 4.60421 11.5525 4.65942 11.5197 4.70865C11.4868 4.75788 11.4446 4.80014 11.3954 4.83303C11.3462 4.86592 11.291 4.88879 11.233 4.90032C11.1749 4.91186 11.1152 4.91183 11.0572 4.90025C8.02152 4.90025 5.59895 7.32372 5.59895 10.3017V13.0385C5.59911 14.0802 5.37251 15.1095 4.93489 16.0549C4.49727 17.0002 3.85911 17.839 3.06475 18.5129C3.05034 18.5246 3.03594 18.5363 3.01973 18.5462C2.95967 18.6103 2.91965 18.6905 2.90461 18.777C2.88958 18.8636 2.90017 18.9526 2.9351 19.0332C2.97003 19.1137 3.02776 19.1823 3.10118 19.2305C3.1746 19.2787 3.26051 19.3043 3.34832 19.3042H18.6526C18.7404 19.3041 18.8263 19.2783 18.8996 19.2299C18.973 19.1816 19.0305 19.1128 19.0653 19.0321C19.1 18.9515 19.1104 18.8624 19.0951 18.7759C19.0799 18.6894 19.0396 18.6092 18.9794 18.5453C18.9644 18.5353 18.95 18.5245 18.9362 18.5129C18.1418 17.839 17.5036 17.0002 17.066 16.0549C16.6284 15.1095 16.4018 14.0802 16.4019 13.0385V12.0752C16.4019 11.9559 16.4494 11.8414 16.5338 11.757C16.6182 11.6725 16.7327 11.6251 16.8521 11.6251C16.9715 11.6251 17.0859 11.6725 17.1704 11.757C17.2548 11.8414 17.3022 11.9559 17.3022 12.0752V13.0385C17.3022 14.8624 18.0926 16.5891 19.4727 17.7864C19.4931 17.7985 19.5124 17.8123 19.5303 17.8278C19.7391 18.0077 19.888 18.2471 19.957 18.5139C20.0259 18.7807 20.0117 19.0623 19.9163 19.3208C19.8208 19.5793 19.6486 19.8025 19.4227 19.9604C19.1969 20.1184 18.9282 20.2035 18.6526 20.2045Z" fill="#282828"/>
<path d="M17 12C13.6916 12 11 9.3084 11 6C11 2.6916 13.6916 0 17 0C20.3084 0 23 2.6916 23 6C23 9.3084 20.3084 12 17 12Z" fill="#FF5F57"/>
<path d="M16.7824 5.546C16.7824 5.79 16.7644 6.034 16.7284 6.278C16.6924 6.518 16.6284 6.746 16.5364 6.962C16.4484 7.174 16.3224 7.364 16.1584 7.532C15.9984 7.696 15.7924 7.826 15.5404 7.922C15.2924 8.014 14.9904 8.06 14.6344 8.06C14.5504 8.06 14.4524 8.056 14.3404 8.048C14.2284 8.044 14.1344 8.034 14.0584 8.018V7.292C14.1384 7.308 14.2224 7.322 14.3104 7.334C14.3984 7.346 14.4864 7.352 14.5744 7.352C14.8424 7.352 15.0624 7.32 15.2344 7.256C15.4104 7.192 15.5484 7.1 15.6484 6.98C15.7484 6.86 15.8204 6.718 15.8644 6.554C15.9124 6.39 15.9404 6.21 15.9484 6.014H15.9124C15.8564 6.106 15.7884 6.19 15.7084 6.266C15.6324 6.342 15.5344 6.402 15.4144 6.446C15.2984 6.49 15.1484 6.512 14.9644 6.512C14.7204 6.512 14.5084 6.46 14.3284 6.356C14.1484 6.248 14.0084 6.094 13.9084 5.894C13.8084 5.69 13.7584 5.444 13.7584 5.156C13.7584 4.844 13.8164 4.578 13.9324 4.358C14.0524 4.134 14.2224 3.964 14.4424 3.848C14.6624 3.728 14.9204 3.668 15.2164 3.668C15.4364 3.668 15.6404 3.706 15.8284 3.782C16.0204 3.858 16.1864 3.974 16.3264 4.13C16.4704 4.282 16.5824 4.476 16.6624 4.712C16.7424 4.948 16.7824 5.226 16.7824 5.546ZM15.2344 4.394C15.0584 4.394 14.9144 4.454 14.8024 4.574C14.6904 4.694 14.6344 4.884 14.6344 5.144C14.6344 5.352 14.6824 5.516 14.7784 5.636C14.8744 5.756 15.0204 5.816 15.2164 5.816C15.3524 5.816 15.4684 5.786 15.5644 5.726C15.6644 5.666 15.7424 5.592 15.7984 5.504C15.8544 5.412 15.8824 5.318 15.8824 5.222C15.8824 5.122 15.8684 5.024 15.8404 4.928C15.8124 4.828 15.7704 4.738 15.7144 4.658C15.6624 4.578 15.5964 4.514 15.5164 4.466C15.4364 4.418 15.3424 4.394 15.2344 4.394ZM19.034 5.564H20.168V6.206H19.034V7.334H18.392V6.206H17.258V5.564H18.392V4.424H19.034V5.564Z" fill="white"/>
</svg>
