<svg width="24" height="24" viewBox="0 0 24 24" fill="none" xmlns="http://www.w3.org/2000/svg">
<path d="M17.2449 16.5265C18.6704 14.9317 19.4578 12.8672 19.4562 10.7281C19.4562 5.91313 15.538 2 10.7281 2C5.91313 2 2 5.91822 2 10.7281C2 15.538 5.91822 19.4562 10.7281 19.4562C12.8672 19.4578 14.9317 18.6704 16.5265 17.2449L21.1275 21.8459C21.1748 21.8935 21.2312 21.9312 21.2933 21.9565C21.3555 21.9819 21.4221 21.9945 21.4892 21.9936C21.6244 21.9931 21.7541 21.9401 21.851 21.8459C21.8982 21.7987 21.9357 21.7428 21.9613 21.6811C21.9868 21.6195 22 21.5534 22 21.4867C22 21.4199 21.9868 21.3539 21.9613 21.2922C21.9357 21.2306 21.8982 21.1746 21.851 21.1275L17.2449 16.5265ZM3.01395 10.7281C3.01395 6.4787 6.4736 3.01904 10.723 3.01904C14.9724 3.01904 18.4321 6.4787 18.4321 10.7281C18.4321 14.9775 14.9724 18.4372 10.723 18.4372C6.4736 18.4372 3.01395 14.9775 3.01395 10.7281Z" fill="black"/>
</svg>
