<svg width="25" height="24" viewBox="0 0 25 24" fill="none" xmlns="http://www.w3.org/2000/svg">
<path d="M17.375 18C17.9054 18 18.4141 18.2107 18.7892 18.5858C19.1643 18.9609 19.375 19.4696 19.375 20C19.375 20.5304 19.1643 21.0391 18.7892 21.4142C18.4141 21.7893 17.9054 22 17.375 22C16.8446 22 16.3359 21.7893 15.9608 21.4142C15.5857 21.0391 15.375 20.5304 15.375 20C15.375 18.89 16.265 18 17.375 18ZM1.375 2H4.645L5.585 4H20.375C20.6402 4 20.8946 4.10536 21.0821 4.29289C21.2696 4.48043 21.375 4.73478 21.375 5C21.375 5.17 21.325 5.34 21.255 5.5L17.675 11.97C17.335 12.58 16.675 13 15.925 13H8.475L7.575 14.63L7.545 14.75C7.545 14.8163 7.57134 14.8799 7.61822 14.9268C7.66511 14.9737 7.7287 15 7.795 15H19.375V17H7.375C6.84457 17 6.33586 16.7893 5.96079 16.4142C5.58571 16.0391 5.375 15.5304 5.375 15C5.375 14.65 5.465 14.32 5.615 14.04L6.975 11.59L3.375 4H1.375V2ZM7.375 18C7.90543 18 8.41414 18.2107 8.78921 18.5858C9.16429 18.9609 9.375 19.4696 9.375 20C9.375 20.5304 9.16429 21.0391 8.78921 21.4142C8.41414 21.7893 7.90543 22 7.375 22C6.84457 22 6.33586 21.7893 5.96079 21.4142C5.58571 21.0391 5.375 20.5304 5.375 20C5.375 18.89 6.265 18 7.375 18ZM16.375 11L19.155 6H6.515L8.875 11H16.375Z" fill="#7D7D7D"/>
</svg>
