<svg width="25" height="25" viewBox="0 0 25 25" fill="none" xmlns="http://www.w3.org/2000/svg">
<path fill-rule="evenodd" clip-rule="evenodd" d="M4.83301 10.8281V19.6667C4.28072 19.6667 3.83301 20.1144 3.83301 20.6667C3.83301 21.219 4.28072 21.6667 4.83301 21.6667H20.833C21.3853 21.6667 21.833 21.219 21.833 20.6667C21.833 20.1144 21.3853 19.6667 20.833 19.6667V10.8281C20.3225 11.3049 19.6154 11.6667 18.833 11.6667V19.6667H6.83301V11.6667C6.05064 11.6667 5.3435 11.3049 4.83301 10.8281Z" fill="#FFD157"/>
<path fill-rule="evenodd" clip-rule="evenodd" d="M6.83301 3.66675C6.45424 3.66675 6.10797 3.88075 5.93858 4.21953L3.93858 8.21953C3.86915 8.35839 3.83301 8.5115 3.83301 8.66675C3.83301 9.49198 4.23556 10.2335 4.7509 10.7489C5.26625 11.2642 6.00778 11.6667 6.83301 11.6667C7.61538 11.6667 8.32252 11.3049 8.83301 10.8282C9.3435 11.3049 10.0506 11.6667 10.833 11.6667C11.6154 11.6667 12.3225 11.3049 12.833 10.8282C13.3435 11.3049 14.0506 11.6667 14.833 11.6667C15.6154 11.6667 16.3225 11.3049 16.833 10.8282C17.3435 11.3049 18.0506 11.6667 18.833 11.6667C19.6582 11.6667 20.3998 11.2642 20.9151 10.7489C21.4305 10.2335 21.833 9.49198 21.833 8.66675C21.833 8.5115 21.7969 8.35839 21.7274 8.21953L19.7274 4.21953C19.558 3.88075 19.2118 3.66675 18.833 3.66675H6.83301ZM10.1651 9.33464C9.93046 9.09999 9.83301 8.84152 9.83301 8.66675C9.83301 8.11446 9.38529 7.66675 8.83301 7.66675C8.28072 7.66675 7.83301 8.11446 7.83301 8.66675C7.83301 8.84152 7.73555 9.09999 7.5009 9.33464C7.26625 9.5693 7.00778 9.66675 6.83301 9.66675C6.65824 9.66675 6.39977 9.5693 6.16511 9.33464C6.00185 9.17137 5.905 8.99657 5.86118 8.84646L7.45104 5.66675H18.215L19.8048 8.84646C19.761 8.99657 19.6642 9.17137 19.5009 9.33464C19.2662 9.5693 19.0078 9.66675 18.833 9.66675C18.6582 9.66675 18.3998 9.5693 18.1651 9.33464C17.9305 9.09999 17.833 8.84152 17.833 8.66675C17.833 8.11446 17.3853 7.66675 16.833 7.66675C16.2807 7.66675 15.833 8.11446 15.833 8.66675C15.833 8.84152 15.7356 9.09999 15.5009 9.33464C15.2662 9.5693 15.0078 9.66675 14.833 9.66675C14.6582 9.66675 14.3998 9.5693 14.1651 9.33464C13.9305 9.09999 13.833 8.84152 13.833 8.66675C13.833 8.11446 13.3853 7.66675 12.833 7.66675C12.2807 7.66675 11.833 8.11446 11.833 8.66675C11.833 8.84152 11.7356 9.09999 11.5009 9.33464C11.2662 9.5693 11.0078 9.66675 10.833 9.66675C10.6582 9.66675 10.3998 9.5693 10.1651 9.33464ZM10.833 13.6667C10.833 13.1145 10.3853 12.6667 9.83301 12.6667C9.28072 12.6667 8.83301 13.1145 8.83301 13.6667V16.6667C8.83301 17.219 9.28072 17.6667 9.83301 17.6667H15.833C16.3853 17.6667 16.833 17.219 16.833 16.6667V13.6667C16.833 13.1145 16.3853 12.6667 15.833 12.6667C15.2807 12.6667 14.833 13.1145 14.833 13.6667V15.6667H10.833V13.6667Z" fill="#545454"/>
</svg>
