<svg width="25" height="25" viewBox="0 0 25 25" fill="none" xmlns="http://www.w3.org/2000/svg">
<path d="M7.32251 2.66675C5.57351 2.66675 4.1665 4.07375 4.1665 5.82275V19.5107C4.1665 21.2597 5.57351 22.6667 7.32251 22.6667H17.0105C18.7595 22.6667 20.1665 21.2597 20.1665 19.5107V7.66675C20.1665 7.40175 20.0725 7.13575 19.8855 6.94775L15.8855 2.94775C15.6975 2.76075 15.4315 2.66675 15.1665 2.66675H7.32251ZM7.32251 4.66675H14.7285L18.1665 8.10474V19.5107C18.1665 20.1547 17.6555 20.6667 17.0105 20.6667H7.32251C6.67851 20.6667 6.1665 20.1547 6.1665 19.5107V5.82275C6.1665 5.17875 6.67751 4.66675 7.32251 4.66675Z" fill="#545454"/>
<path d="M9.1665 10.6667C8.61422 10.6667 8.1665 11.1135 8.1665 11.6658C8.1665 13.5086 8.1665 17.2901 8.1665 17.6667C8.1665 18.2187 8.6145 18.6667 9.1665 18.6667H15.1665C15.7185 18.6667 16.1665 18.2187 16.1665 17.6667V11.6667C16.1665 11.1145 15.7188 10.6667 15.1665 10.6667H9.1665ZM10.1665 12.6667H14.1665V16.6667H10.1665C10.1665 16.1437 10.1665 13.3807 10.1665 12.6667Z" fill="#FFD157"/>
</svg>
