<svg width="25" height="25" viewBox="0 0 25 25" fill="none" xmlns="http://www.w3.org/2000/svg">
<path d="M20.5 5.66675C20.5 4.00975 19.157 2.66675 17.5 2.66675H7.5C5.843 2.66675 4.5 4.00975 4.5 5.66675V19.6667C4.5 21.3237 5.843 22.6667 7.5 22.6667H17.5C19.157 22.6667 20.5 21.3237 20.5 19.6667V5.66675ZM18.5 5.66675V19.6667C18.5 20.2187 18.052 20.6667 17.5 20.6667H7.5C6.948 20.6667 6.5 20.2187 6.5 19.6667V5.66675C6.5 5.11475 6.948 4.66675 7.5 4.66675H17.5C18.052 4.66675 18.5 5.11475 18.5 5.66675Z" fill="#545454"/>
<circle cx="12.5" cy="18.6667" r="1" fill="#FFD157"/>
</svg>
