<svg width="25" height="24" viewBox="0 0 25 24" fill="none" xmlns="http://www.w3.org/2000/svg">
<path d="M15.8355 12.7099C16.8159 11.9385 17.5315 10.8808 17.8827 9.68382C18.234 8.48684 18.2034 7.21015 17.7953 6.03135C17.3871 4.85255 16.6217 3.83027 15.6056 3.10674C14.5894 2.3832 13.3729 1.99438 12.1255 1.99438C10.878 1.99438 9.6616 2.3832 8.64541 3.10674C7.62923 3.83027 6.86383 4.85255 6.4557 6.03135C6.04757 7.21015 6.017 8.48684 6.36825 9.68382C6.71949 10.8808 7.43509 11.9385 8.41548 12.7099C6.73556 13.3829 5.26977 14.4992 4.17438 15.9398C3.07898 17.3804 2.39505 19.0912 2.19548 20.8899C2.18104 21.0212 2.1926 21.1541 2.22951 21.2809C2.26642 21.4078 2.32795 21.5261 2.4106 21.6292C2.5775 21.8374 2.82027 21.9707 3.08549 21.9999C3.3507 22.0291 3.61664 21.9517 3.82481 21.7848C4.03298 21.6179 4.16631 21.3751 4.19549 21.1099C4.41507 19.1551 5.34717 17.3497 6.8137 16.0387C8.28024 14.7277 10.1784 14.0029 12.1455 14.0029C14.1126 14.0029 16.0107 14.7277 17.4773 16.0387C18.9438 17.3497 19.8759 19.1551 20.0955 21.1099C20.1227 21.3556 20.2399 21.5825 20.4246 21.7469C20.6093 21.9113 20.8483 22.0014 21.0955 21.9999H21.2055C21.4676 21.9697 21.7072 21.8372 21.872 21.6311C22.0369 21.4251 22.1136 21.1622 22.0855 20.8999C21.885 19.0961 21.1974 17.3809 20.0963 15.9381C18.9953 14.4953 17.5224 13.3794 15.8355 12.7099ZM12.1255 11.9999C11.3344 11.9999 10.561 11.7653 9.9032 11.3258C9.24541 10.8862 8.73272 10.2615 8.42997 9.53061C8.12722 8.79971 8.048 7.99544 8.20234 7.21952C8.35668 6.4436 8.73765 5.73086 9.29706 5.17145C9.85647 4.61204 10.5692 4.23108 11.3451 4.07674C12.121 3.9224 12.9253 4.00161 13.6562 4.30436C14.3871 4.60711 15.0118 5.1198 15.4514 5.7776C15.8909 6.4354 16.1255 7.20876 16.1255 7.99988C16.1255 9.06075 15.7041 10.0782 14.9539 10.8283C14.2038 11.5785 13.1864 11.9999 12.1255 11.9999Z" fill="#7D7D7D"/>
</svg>
